<mxfile host="app.diagrams.net" agent="Mozilla/5.0 (Windows NT 10.0; Win64; x64) AppleWebKit/537.36 (KHTML, like Gecko) Chrome/141.0.0.0 Safari/537.36" version="28.2.5">
  <diagram name="데이터베이스 ERD" id="db-erd">
    <mxGraphModel dx="2037" dy="1110" grid="1" gridSize="10" guides="1" tooltips="1" connect="1" arrows="1" fold="1" page="1" pageScale="1" pageWidth="1920" pageHeight="1080" background="light-dark(#FFFFFF,#FFFFFF)" math="0" shadow="0">
      <root>
        <mxCell id="0" />
        <mxCell id="1" parent="0" />
        <mxCell id="title" value="성적 관리 시스템 - 데이터베이스 ERD" style="text;html=1;strokeColor=none;fillColor=none;align=center;verticalAlign=middle;whiteSpace=wrap;rounded=0;fontSize=36;fontStyle=1;fontColor=light-dark(#1A1A1A,#CC6600);" parent="1" vertex="1">
          <mxGeometry x="350" y="80" width="1000" height="70" as="geometry" />
        </mxCell>
        <mxCell id="legend-box" value="&lt;blockquote style=&quot;margin: 0 0 0 40px; border: none; padding: 0px;&quot;&gt;범례&lt;/blockquote&gt;" style="rounded=1;whiteSpace=wrap;html=1;strokeColor=#666666;strokeWidth=2;fillColor=#F5F5F5;fontSize=18;fontStyle=1;fontColor=#333333;align=left;verticalAlign=top;" parent="1" vertex="1">
          <mxGeometry x="30" y="70" width="280" height="170" as="geometry" />
        </mxCell>
        <mxCell id="legend-pk" value="PK = Primary Key" style="text;html=1;strokeColor=none;fillColor=none;align=left;verticalAlign=middle;whiteSpace=wrap;rounded=0;fontSize=15;fontColor=#D32F2F;fontStyle=1;" parent="1" vertex="1">
          <mxGeometry x="50" y="110" width="240" height="30" as="geometry" />
        </mxCell>
        <mxCell id="legend-fk" value="FK = Foreign Key" style="text;html=1;strokeColor=none;fillColor=none;align=left;verticalAlign=middle;whiteSpace=wrap;rounded=0;fontSize=15;fontColor=#1976D2;fontStyle=1;" parent="1" vertex="1">
          <mxGeometry x="50" y="140" width="240" height="30" as="geometry" />
        </mxCell>
        <mxCell id="legend-json" value="JSON = LONGTEXT 컬럼" style="text;html=1;strokeColor=none;fillColor=none;align=left;verticalAlign=middle;whiteSpace=wrap;rounded=0;fontSize=15;fontColor=#7B1FA2;fontStyle=1;" parent="1" vertex="1">
          <mxGeometry x="50" y="170" width="240" height="30" as="geometry" />
        </mxCell>
        <mxCell id="legend-cascade" value="⚠️ = ON DELETE CASCADE" style="text;html=1;strokeColor=none;fillColor=none;align=left;verticalAlign=middle;whiteSpace=wrap;rounded=0;fontSize=15;fontColor=#F57C00;fontStyle=1;" parent="1" vertex="1">
          <mxGeometry x="50" y="200" width="240" height="30" as="geometry" />
        </mxCell>
        <mxCell id="user-table" value="USER_TBL" style="swimlane;fontStyle=1;childLayout=stackLayout;horizontal=1;startSize=40;fillColor=#E3F2FD;horizontalStack=0;resizeParent=1;resizeParentMax=0;resizeLast=0;collapsible=0;marginBottom=0;strokeColor=#1976D2;strokeWidth=3;fontSize=16;fontColor=#0D47A1;" parent="1" vertex="1">
          <mxGeometry x="30" y="260" width="320" height="280" as="geometry" />
        </mxCell>
        <mxCell id="user-pk" value="🔑 USER_IDX (PK)" style="text;strokeColor=#001DBC;fillColor=#0050ef;align=left;verticalAlign=middle;spacingLeft=15;spacingRight=4;overflow=hidden;rotatable=0;points=[[0,0.5],[1,0.5]];portConstraint=eastwest;fontSize=14;fontColor=light-dark(#FFFFFF,#990000);fontStyle=1;" parent="user-table" vertex="1">
          <mxGeometry y="40" width="320" height="30" as="geometry" />
        </mxCell>
        <mxCell id="user-col1" value="   USER_EMAIL" style="text;strokeColor=#001DBC;fillColor=#0050ef;align=left;verticalAlign=middle;spacingLeft=15;spacingRight=4;overflow=hidden;rotatable=0;points=[[0,0.5],[1,0.5]];portConstraint=eastwest;fontSize=14;fontColor=#ffffff;" parent="user-table" vertex="1">
          <mxGeometry y="70" width="320" height="30" as="geometry" />
        </mxCell>
        <mxCell id="user-col2" value="   USER_PW" style="text;strokeColor=#001DBC;fillColor=#0050ef;align=left;verticalAlign=middle;spacingLeft=15;spacingRight=4;overflow=hidden;rotatable=0;points=[[0,0.5],[1,0.5]];portConstraint=eastwest;fontSize=14;fontColor=#ffffff;" parent="user-table" vertex="1">
          <mxGeometry y="100" width="320" height="30" as="geometry" />
        </mxCell>
        <mxCell id="user-col3" value="   USER_NAME" style="text;strokeColor=#001DBC;fillColor=#0050ef;align=left;verticalAlign=middle;spacingLeft=15;spacingRight=4;overflow=hidden;rotatable=0;points=[[0,0.5],[1,0.5]];portConstraint=eastwest;fontSize=14;fontColor=#ffffff;" parent="user-table" vertex="1">
          <mxGeometry y="130" width="320" height="30" as="geometry" />
        </mxCell>
        <mxCell id="user-col4" value="   USER_CODE (학번/교번)" style="text;strokeColor=#001DBC;fillColor=#0050ef;align=left;verticalAlign=middle;spacingLeft=15;spacingRight=4;overflow=hidden;rotatable=0;points=[[0,0.5],[1,0.5]];portConstraint=eastwest;fontSize=14;fontColor=#ffffff;" parent="user-table" vertex="1">
          <mxGeometry y="160" width="320" height="30" as="geometry" />
        </mxCell>
        <mxCell id="user-col5" value="   USER_PHONE" style="text;strokeColor=#001DBC;fillColor=#0050ef;align=left;verticalAlign=middle;spacingLeft=15;spacingRight=4;overflow=hidden;rotatable=0;points=[[0,0.5],[1,0.5]];portConstraint=eastwest;fontSize=14;fontColor=#ffffff;" parent="user-table" vertex="1">
          <mxGeometry y="190" width="320" height="30" as="geometry" />
        </mxCell>
        <mxCell id="user-col6" value="   USER_STUDENT (학생/교수 구분)" style="text;strokeColor=#001DBC;fillColor=#0050ef;align=left;verticalAlign=middle;spacingLeft=15;spacingRight=4;overflow=hidden;rotatable=0;points=[[0,0.5],[1,0.5]];portConstraint=eastwest;fontSize=14;fontColor=#ffffff;fontStyle=1;" parent="user-table" vertex="1">
          <mxGeometry y="220" width="320" height="30" as="geometry" />
        </mxCell>
        <mxCell id="user-col7" value="   USER_REG (등록일)" style="text;strokeColor=#001DBC;fillColor=#0050ef;align=left;verticalAlign=middle;spacingLeft=15;spacingRight=4;overflow=hidden;rotatable=0;points=[[0,0.5],[1,0.5]];portConstraint=eastwest;fontSize=14;fontColor=#ffffff;" parent="user-table" vertex="1">
          <mxGeometry y="250" width="320" height="30" as="geometry" />
        </mxCell>
        <mxCell id="lec-table" value="LEC_TBL" style="swimlane;fontStyle=1;childLayout=stackLayout;horizontal=1;startSize=40;fillColor=#C8E6C9;horizontalStack=0;resizeParent=1;resizeParentMax=0;resizeLast=0;collapsible=0;marginBottom=0;strokeColor=#388E3C;strokeWidth=3;fontSize=16;fontColor=#1B5E20;" parent="1" vertex="1">
          <mxGeometry x="520" y="200" width="320" height="310" as="geometry" />
        </mxCell>
        <mxCell id="lec-pk" value="🔑 LEC_IDX (PK)" style="text;strokeColor=none;fillColor=light-dark(#000000,#4D9900);align=left;verticalAlign=middle;spacingLeft=15;spacingRight=4;overflow=hidden;rotatable=0;points=[[0,0.5],[1,0.5]];portConstraint=eastwest;fontSize=14;fontColor=light-dark(#FFFFFF,#990000);fontStyle=1;" parent="lec-table" vertex="1">
          <mxGeometry y="40" width="320" height="30" as="geometry" />
        </mxCell>
        <mxCell id="lec-col1" value="   LEC_SERIAL (강의코드)" style="text;strokeColor=none;fillColor=light-dark(#000000,#4D9900);align=left;verticalAlign=middle;spacingLeft=15;spacingRight=4;overflow=hidden;rotatable=0;points=[[0,0.5],[1,0.5]];portConstraint=eastwest;fontSize=14;fontColor=light-dark(#1A1A1A,#000000);fontStyle=1;" parent="lec-table" vertex="1">
          <mxGeometry y="70" width="320" height="30" as="geometry" />
        </mxCell>
        <mxCell id="lec-col2" value="   LEC_TIT (강의명)" style="text;strokeColor=none;fillColor=light-dark(#000000,#4D9900);align=left;verticalAlign=middle;spacingLeft=15;spacingRight=4;overflow=hidden;rotatable=0;points=[[0,0.5],[1,0.5]];portConstraint=eastwest;fontSize=14;fontColor=light-dark(#1A1A1A,#000000);" parent="lec-table" vertex="1">
          <mxGeometry y="100" width="320" height="30" as="geometry" />
        </mxCell>
        <mxCell id="lec-fk" value="🔗 LEC_PROF (FK → USER_TBL)" style="text;strokeColor=none;fillColor=light-dark(#000000,#4D9900);align=left;verticalAlign=middle;spacingLeft=15;spacingRight=4;overflow=hidden;rotatable=0;points=[[0,0.5],[1,0.5]];portConstraint=eastwest;fontSize=14;fontColor=light-dark(#1976D2,#0000CC);fontStyle=1;" parent="lec-table" vertex="1">
          <mxGeometry y="130" width="320" height="30" as="geometry" />
        </mxCell>
        <mxCell id="lec-col3" value="   LEC_POINT (학점)" style="text;strokeColor=none;fillColor=light-dark(#000000,#4D9900);align=left;verticalAlign=middle;spacingLeft=15;spacingRight=4;overflow=hidden;rotatable=0;points=[[0,0.5],[1,0.5]];portConstraint=eastwest;fontSize=14;fontColor=light-dark(#1A1A1A,#000000);" parent="lec-table" vertex="1">
          <mxGeometry y="160" width="320" height="30" as="geometry" />
        </mxCell>
        <mxCell id="lec-col4" value="   LEC_YEAR (년도)" style="text;strokeColor=none;fillColor=light-dark(#000000,#4D9900);align=left;verticalAlign=middle;spacingLeft=15;spacingRight=4;overflow=hidden;rotatable=0;points=[[0,0.5],[1,0.5]];portConstraint=eastwest;fontSize=14;fontColor=light-dark(#1A1A1A,#000000);" parent="lec-table" vertex="1">
          <mxGeometry y="190" width="320" height="30" as="geometry" />
        </mxCell>
        <mxCell id="lec-col5" value="   LEC_SEMESTER (학기)" style="text;strokeColor=none;fillColor=light-dark(#000000,#4D9900);align=left;verticalAlign=middle;spacingLeft=15;spacingRight=4;overflow=hidden;rotatable=0;points=[[0,0.5],[1,0.5]];portConstraint=eastwest;fontSize=14;fontColor=light-dark(#1A1A1A,#000000);" parent="lec-table" vertex="1">
          <mxGeometry y="220" width="320" height="30" as="geometry" />
        </mxCell>
        <mxCell id="lec-col6" value="   LEC_MANY (수강 인원)" style="text;strokeColor=none;fillColor=light-dark(#000000,#4D9900);align=left;verticalAlign=middle;spacingLeft=15;spacingRight=4;overflow=hidden;rotatable=0;points=[[0,0.5],[1,0.5]];portConstraint=eastwest;fontSize=14;fontColor=light-dark(#1A1A1A,#000000);" parent="lec-table" vertex="1">
          <mxGeometry y="250" width="320" height="30" as="geometry" />
        </mxCell>
        <mxCell id="lec-col7" value="   LEC_REG (등록일)" style="text;strokeColor=none;fillColor=light-dark(#000000,#4D9900);align=left;verticalAlign=middle;spacingLeft=15;spacingRight=4;overflow=hidden;rotatable=0;points=[[0,0.5],[1,0.5]];portConstraint=eastwest;fontSize=14;fontColor=light-dark(#1A1A1A,#000000);" parent="lec-table" vertex="1">
          <mxGeometry y="280" width="320" height="30" as="geometry" />
        </mxCell>
        <mxCell id="enrollment-table" value="ENROLLMENT_EXTENDED_TBL" style="swimlane;fontStyle=1;childLayout=stackLayout;horizontal=1;startSize=40;fillColor=#F3E5F5;horizontalStack=0;resizeParent=1;resizeParentMax=0;resizeLast=0;collapsible=0;marginBottom=0;strokeColor=#7B1FA2;strokeWidth=4;fontSize=16;fontColor=#4A148C;" parent="1" vertex="1">
          <mxGeometry x="1080" y="190" width="420" height="190" as="geometry" />
        </mxCell>
        <mxCell id="enrollment-pk" value="🔑 ENROLLMENT_IDX (PK)" style="text;strokeColor=none;fillColor=#FFFFFF;align=left;verticalAlign=middle;spacingLeft=15;spacingRight=4;overflow=hidden;rotatable=0;points=[[0,0.5],[1,0.5]];portConstraint=eastwest;fontSize=14;fontColor=#D32F2F;fontStyle=1;" parent="enrollment-table" vertex="1">
          <mxGeometry y="40" width="420" height="30" as="geometry" />
        </mxCell>
        <mxCell id="enrollment-fk1" value="🔗 LEC_IDX (FK → LEC_TBL) ⚠️" style="text;strokeColor=none;fillColor=#FFFFFF;align=left;verticalAlign=middle;spacingLeft=15;spacingRight=4;overflow=hidden;rotatable=0;points=[[0,0.5],[1,0.5]];portConstraint=eastwest;fontSize=14;fontColor=#1976D2;fontStyle=1;" parent="enrollment-table" vertex="1">
          <mxGeometry y="70" width="420" height="30" as="geometry" />
        </mxCell>
        <mxCell id="enrollment-fk2" value="🔗 STUDENT_IDX (FK → USER_TBL) ⚠️" style="text;strokeColor=none;fillColor=#FFFFFF;align=left;verticalAlign=middle;spacingLeft=15;spacingRight=4;overflow=hidden;rotatable=0;points=[[0,0.5],[1,0.5]];portConstraint=eastwest;fontSize=14;fontColor=#1976D2;fontStyle=1;" parent="enrollment-table" vertex="1">
          <mxGeometry y="100" width="420" height="30" as="geometry" />
        </mxCell>
        <mxCell id="enrollment-json" value="📦 ENROLLMENT_DATA (LONGTEXT/JSON)" style="text;strokeColor=none;fillColor=#F3E5F5;align=left;verticalAlign=middle;spacingLeft=15;spacingRight=4;overflow=hidden;rotatable=0;points=[[0,0.5],[1,0.5]];portConstraint=eastwest;fontSize=15;fontColor=#7B1FA2;fontStyle=1;" parent="enrollment-table" vertex="1">
          <mxGeometry y="130" width="420" height="30" as="geometry" />
        </mxCell>
        <mxCell id="enrollment-json-detail" value="   ↳ 출석/성적 데이터 (gradeConfig, attendance, grade)" style="text;strokeColor=none;fillColor=#FFFFFF;align=left;verticalAlign=middle;spacingLeft=15;spacingRight=4;overflow=hidden;rotatable=0;points=[[0,0.5],[1,0.5]];portConstraint=eastwest;fontSize=14;fontColor=#7B1FA2;fontStyle=2;" parent="enrollment-table" vertex="1">
          <mxGeometry y="160" width="420" height="30" as="geometry" />
        </mxCell>
        <mxCell id="assignment-table" value="ASSIGNMENT_EXTENDED_TBL" style="swimlane;fontStyle=1;childLayout=stackLayout;horizontal=1;startSize=40;fillColor=#FFF3E0;horizontalStack=0;resizeParent=1;resizeParentMax=0;resizeLast=0;collapsible=0;marginBottom=0;strokeColor=#F57C00;strokeWidth=4;fontSize=16;fontColor=#E65100;" parent="1" vertex="1">
          <mxGeometry x="1100" y="490" width="420" height="160" as="geometry" />
        </mxCell>
        <mxCell id="assignment-pk" value="🔑 ASSIGNMENT_IDX (PK)" style="text;strokeColor=none;fillColor=#FFFFFF;align=left;verticalAlign=middle;spacingLeft=15;spacingRight=4;overflow=hidden;rotatable=0;points=[[0,0.5],[1,0.5]];portConstraint=eastwest;fontSize=14;fontColor=light-dark(#FFFFFF,#990000);fontStyle=1;" parent="assignment-table" vertex="1">
          <mxGeometry y="40" width="420" height="30" as="geometry" />
        </mxCell>
        <mxCell id="assignment-fk" value="🔗 LEC_IDX (FK → LEC_TBL) ⚠️" style="text;strokeColor=none;fillColor=#FFFFFF;align=left;verticalAlign=middle;spacingLeft=15;spacingRight=4;overflow=hidden;rotatable=0;points=[[0,0.5],[1,0.5]];portConstraint=eastwest;fontSize=14;fontColor=light-dark(#1976D2,#0000CC);fontStyle=1;" parent="assignment-table" vertex="1">
          <mxGeometry y="70" width="420" height="30" as="geometry" />
        </mxCell>
        <mxCell id="assignment-json" value="📦 ASSIGNMENT_DATA (LONGTEXT/JSON)" style="text;strokeColor=none;fillColor=#FFF9C4;align=left;verticalAlign=middle;spacingLeft=15;spacingRight=4;overflow=hidden;rotatable=0;points=[[0,0.5],[1,0.5]];portConstraint=eastwest;fontSize=15;fontColor=#F57C00;fontStyle=1;" parent="assignment-table" vertex="1">
          <mxGeometry y="100" width="420" height="30" as="geometry" />
        </mxCell>
        <mxCell id="assignment-json-detail" value="   ↳ 과제/제출 데이터 (assignment, submissions)" style="text;strokeColor=none;fillColor=#FFFFFF;align=left;verticalAlign=middle;spacingLeft=15;spacingRight=4;overflow=hidden;rotatable=0;points=[[0,0.5],[1,0.5]];portConstraint=eastwest;fontSize=14;fontColor=#F57C00;fontStyle=2;" parent="assignment-table" vertex="1">
          <mxGeometry y="130" width="420" height="30" as="geometry" />
        </mxCell>
        <mxCell id="faculty-table" value="FACULTY" style="swimlane;fontStyle=1;childLayout=stackLayout;horizontal=1;startSize=40;fillColor=#E8F5E9;horizontalStack=0;resizeParent=1;resizeParentMax=0;resizeLast=0;collapsible=0;marginBottom=0;strokeColor=#388E3C;strokeWidth=2;fontSize=16;fontColor=#1B5E20;" parent="1" vertex="1">
          <mxGeometry x="40" y="580" width="280" height="130" as="geometry" />
        </mxCell>
        <mxCell id="faculty-pk" value="🔑 faculty_id (PK)" style="text;strokeColor=#314354;fillColor=#647687;align=left;verticalAlign=middle;spacingLeft=15;spacingRight=4;overflow=hidden;rotatable=0;points=[[0,0.5],[1,0.5]];portConstraint=eastwest;fontSize=14;fontColor=light-dark(#FFFFFF,#990000);fontStyle=1;" parent="faculty-table" vertex="1">
          <mxGeometry y="40" width="280" height="30" as="geometry" />
        </mxCell>
        <mxCell id="faculty-col1" value="   faculty_code" style="text;strokeColor=#314354;fillColor=#647687;align=left;verticalAlign=middle;spacingLeft=15;spacingRight=4;overflow=hidden;rotatable=0;points=[[0,0.5],[1,0.5]];portConstraint=eastwest;fontSize=14;fontColor=#ffffff;" parent="faculty-table" vertex="1">
          <mxGeometry y="70" width="280" height="30" as="geometry" />
        </mxCell>
        <mxCell id="faculty-col2" value="   faculty_name (학부명)" style="text;strokeColor=#314354;fillColor=#647687;align=left;verticalAlign=middle;spacingLeft=15;spacingRight=4;overflow=hidden;rotatable=0;points=[[0,0.5],[1,0.5]];portConstraint=eastwest;fontSize=14;fontColor=#ffffff;" parent="faculty-table" vertex="1">
          <mxGeometry y="100" width="280" height="30" as="geometry" />
        </mxCell>
        <mxCell id="dept-table" value="DEPARTMENT" style="swimlane;fontStyle=1;childLayout=stackLayout;horizontal=1;startSize=40;fillColor=#E8F5E9;horizontalStack=0;resizeParent=1;resizeParentMax=0;resizeLast=0;collapsible=0;marginBottom=0;strokeColor=#388E3C;strokeWidth=2;fontSize=16;fontColor=#1B5E20;" parent="1" vertex="1">
          <mxGeometry x="540" y="580" width="320" height="160" as="geometry" />
        </mxCell>
        <mxCell id="dept-pk" value="🔑 dept_id (PK)" style="text;strokeColor=none;fillColor=light-dark(#FFFFFF,#67AB9F);align=left;verticalAlign=middle;spacingLeft=15;spacingRight=4;overflow=hidden;rotatable=0;points=[[0,0.5],[1,0.5]];portConstraint=eastwest;fontSize=14;fontColor=light-dark(#FFFFFF,#990000);fontStyle=1;" parent="dept-table" vertex="1">
          <mxGeometry y="40" width="320" height="30" as="geometry" />
        </mxCell>
        <mxCell id="dept-fk" value="🔗 faculty_id (FK → FACULTY)" style="text;strokeColor=none;fillColor=light-dark(#FFFFFF,#67AB9F);align=left;verticalAlign=middle;spacingLeft=15;spacingRight=4;overflow=hidden;rotatable=0;points=[[0,0.5],[1,0.5]];portConstraint=eastwest;fontSize=14;fontColor=light-dark(#1976D2,#0000CC);fontStyle=1;" parent="dept-table" vertex="1">
          <mxGeometry y="70" width="320" height="30" as="geometry" />
        </mxCell>
        <mxCell id="dept-col1" value="   dept_code" style="text;strokeColor=none;fillColor=light-dark(#FFFFFF,#67AB9F);align=left;verticalAlign=middle;spacingLeft=15;spacingRight=4;overflow=hidden;rotatable=0;points=[[0,0.5],[1,0.5]];portConstraint=eastwest;fontSize=14;fontColor=light-dark(#1A1A1A,#000000);" parent="dept-table" vertex="1">
          <mxGeometry y="100" width="320" height="30" as="geometry" />
        </mxCell>
        <mxCell id="dept-col2" value="   dept_name (학과명)" style="text;strokeColor=none;fillColor=light-dark(#FFFFFF,#67AB9F);align=left;verticalAlign=middle;spacingLeft=15;spacingRight=4;overflow=hidden;rotatable=0;points=[[0,0.5],[1,0.5]];portConstraint=eastwest;fontSize=14;fontColor=light-dark(#1A1A1A,#000000);" parent="dept-table" vertex="1">
          <mxGeometry y="130" width="320" height="30" as="geometry" />
        </mxCell>
        <mxCell id="rel-user-lec" value="" style="endArrow=ERmany;startArrow=ERone;html=1;rounded=0;strokeColor=light-dark(#388E3C,#3D7440);strokeWidth=3;exitX=1;exitY=0.5;exitDx=0;exitDy=0;entryX=0;entryY=0.5;entryDx=0;entryDy=0;endFill=0;startFill=0;edgeStyle=orthogonalEdgeStyle;" parent="1" source="user-col6" target="lec-fk" edge="1">
          <mxGeometry relative="1" as="geometry" />
        </mxCell>
        <mxCell id="rel-user-lec-label" value="1:N (교수 담당 강의)" style="text;html=1;strokeColor=none;fillColor=none;align=center;verticalAlign=middle;whiteSpace=wrap;rounded=0;fontSize=14;fontColor=light-dark(#388E3C,#3D7440);fontStyle=1;" parent="1" vertex="1">
          <mxGeometry x="360" y="510" width="140" height="30" as="geometry" />
        </mxCell>
        <mxCell id="rel-user-enrollment" value="" style="endArrow=ERmany;startArrow=ERone;html=1;rounded=0;strokeColor=light-dark(#7B1FA2,#7B1FA2);strokeWidth=3;exitX=1;exitY=0.5;exitDx=0;exitDy=0;entryX=0;entryY=0.5;entryDx=0;entryDy=0;edgeStyle=orthogonalEdgeStyle;endFill=0;startFill=0;" parent="1" source="user-col5" target="enrollment-fk2" edge="1">
          <mxGeometry relative="1" as="geometry">
            <Array as="points">
              <mxPoint x="390" y="465" />
              <mxPoint x="390" y="180" />
              <mxPoint x="920" y="180" />
              <mxPoint x="920" y="305" />
            </Array>
          </mxGeometry>
        </mxCell>
        <mxCell id="rel-user-enrollment-label" value="1:N (학생 수강신청)" style="text;html=1;strokeColor=none;fillColor=none;align=center;verticalAlign=middle;whiteSpace=wrap;rounded=0;fontSize=14;fontColor=light-dark(#7B1FA2,#7B1FA2);fontStyle=1;" parent="1" vertex="1">
          <mxGeometry x="1080" y="410" width="140" height="30" as="geometry" />
        </mxCell>
        <mxCell id="rel-lec-enrollment" value="" style="endArrow=ERmany;startArrow=ERone;html=1;rounded=0;strokeColor=light-dark(#7B1FA2,#7B1FA2);strokeWidth=3;exitX=1;exitY=0.5;exitDx=0;exitDy=0;endFill=0;startFill=0;edgeStyle=orthogonalEdgeStyle;" parent="1" source="lec-col4" target="enrollment-fk1" edge="1">
          <mxGeometry relative="1" as="geometry">
            <Array as="points">
              <mxPoint x="1540" y="405" />
              <mxPoint x="1540" y="275" />
            </Array>
          </mxGeometry>
        </mxCell>
        <mxCell id="rel-lec-enrollment-label" value="1:N (강의별 수강생)" style="text;html=1;strokeColor=none;fillColor=none;align=center;verticalAlign=middle;whiteSpace=wrap;rounded=0;fontSize=14;fontColor=light-dark(#7B1FA2,#7B1FA2);fontStyle=1;" parent="1" vertex="1">
          <mxGeometry x="390" y="140" width="140" height="30" as="geometry" />
        </mxCell>
        <mxCell id="rel-lec-assignment" value="" style="endArrow=ERmany;startArrow=ERone;html=1;rounded=0;strokeColor=#F57C00;strokeWidth=3;exitX=1;exitY=0.5;exitDx=0;exitDy=0;entryX=0;entryY=0.5;entryDx=0;entryDy=0;edgeStyle=orthogonalEdgeStyle;endFill=0;startFill=0;" parent="1" source="lec-col6" target="assignment-fk" edge="1">
          <mxGeometry relative="1" as="geometry">
            <Array as="points">
              <mxPoint x="880" y="465" />
              <mxPoint x="880" y="575" />
            </Array>
          </mxGeometry>
        </mxCell>
        <mxCell id="rel-lec-assignment-label" value="1:N (강의별 과제)" style="text;html=1;strokeColor=none;fillColor=none;align=center;verticalAlign=middle;whiteSpace=wrap;rounded=0;fontSize=14;fontColor=#F57C00;fontStyle=1;" parent="1" vertex="1">
          <mxGeometry x="900" y="540" width="120" height="30" as="geometry" />
        </mxCell>
        <mxCell id="rel-faculty-dept" value="" style="endArrow=ERmany;startArrow=ERone;html=1;rounded=0;strokeColor=light-dark(#388E3C,#3D7440);strokeWidth=2;exitX=1;exitY=0.5;exitDx=0;exitDy=0;entryX=0;entryY=0.5;entryDx=0;entryDy=0;endFill=0;startFill=0;" parent="1" source="faculty-col1" target="dept-fk" edge="1">
          <mxGeometry relative="1" as="geometry" />
        </mxCell>
        <mxCell id="rel-faculty-dept-label" value="1:N (학부-학과)" style="text;html=1;strokeColor=none;fillColor=none;align=center;verticalAlign=middle;whiteSpace=wrap;rounded=0;fontSize=14;fontColor=light-dark(#388E3C,#3D7440);fontStyle=1;" parent="1" vertex="1">
          <mxGeometry x="380" y="630" width="100" height="30" as="geometry" />
        </mxCell>
        <mxCell id="features-box" value="🎯 핵심 특징" style="rounded=1;whiteSpace=wrap;html=1;strokeColor=#D32F2F;strokeWidth=3;fillColor=#FFEBEE;fontSize=20;fontColor=#B71C1C;fontStyle=1;align=left;verticalAlign=top;" parent="1" vertex="1">
          <mxGeometry x="30" y="750" width="680" height="230" as="geometry" />
        </mxCell>
        <mxCell id="feature1" value="✅ JSON 기반 확장 가능한 데이터 구조" style="text;html=1;strokeColor=none;fillColor=none;align=left;verticalAlign=middle;whiteSpace=wrap;rounded=0;fontSize=15;fontColor=#424242;fontStyle=1;" parent="1" vertex="1">
          <mxGeometry x="60" y="800" width="620" height="30" as="geometry" />
        </mxCell>
        <mxCell id="feature2" value="✅ ENROLLMENT_DATA: 출석/성적 통합 관리 (LONGTEXT)" style="text;html=1;strokeColor=none;fillColor=none;align=left;verticalAlign=middle;whiteSpace=wrap;rounded=0;fontSize=15;fontColor=#7B1FA2;fontStyle=1;" parent="1" vertex="1">
          <mxGeometry x="60" y="830" width="620" height="30" as="geometry" />
        </mxCell>
        <mxCell id="feature3" value="✅ ASSIGNMENT_DATA: 과제/제출 통합 관리 (LONGTEXT)" style="text;html=1;strokeColor=none;fillColor=none;align=left;verticalAlign=middle;whiteSpace=wrap;rounded=0;fontSize=15;fontColor=#F57C00;fontStyle=1;" parent="1" vertex="1">
          <mxGeometry x="60" y="860" width="620" height="30" as="geometry" />
        </mxCell>
        <mxCell id="feature4" value="✅ ON DELETE CASCADE: 강의 삭제 시 수강/과제 자동 삭제" style="text;html=1;strokeColor=none;fillColor=none;align=left;verticalAlign=middle;whiteSpace=wrap;rounded=0;fontSize=15;fontColor=#D32F2F;fontStyle=1;" parent="1" vertex="1">
          <mxGeometry x="60" y="890" width="620" height="30" as="geometry" />
        </mxCell>
        <mxCell id="feature5" value="✅ 학생/교수 구분 (USER_STUDENT): 역할 기반 접근 제어" style="text;html=1;strokeColor=none;fillColor=none;align=left;verticalAlign=middle;whiteSpace=wrap;rounded=0;fontSize=15;fontColor=#1976D2;fontStyle=1;" parent="1" vertex="1">
          <mxGeometry x="60" y="920" width="620" height="30" as="geometry" />
        </mxCell>
        <mxCell id="json-preview-box" value="📦 JSON 데이터 구조 미리보기" style="rounded=1;whiteSpace=wrap;html=1;strokeColor=#7B1FA2;strokeWidth=3;fillColor=#F3E5F5;fontSize=18;fontColor=#4A148C;fontStyle=1;align=left;verticalAlign=top;" parent="1" vertex="1">
          <mxGeometry x="830" y="750" width="670" height="230" as="geometry" />
        </mxCell>
        <mxCell id="json-preview-content" value="&lt;font style=&quot;font-size: 15px;&quot;&gt;{&lt;br&gt;  &quot;gradeConfig&quot;: { attendanceMaxScore, assignmentTotalScore, ... },&lt;br&gt;  &quot;attendance&quot;: { summary, sessions, pendingRequests },&lt;br&gt;  &quot;grade&quot;: {&lt;br&gt;    &quot;attendanceScore&quot;: { currentScore, presentCount, lateCount },&lt;br&gt;    &quot;assignments&quot;: [{ assignmentIdx, score, maxScore, ... }],&lt;br&gt;    &quot;total&quot;: { currentScore, percentage },&lt;br&gt;    &quot;letterGrade&quot;: &quot;A&quot; | &quot;B&quot; | &quot;C&quot; | &quot;D&quot; | &quot;F&quot;&lt;br&gt;  }&lt;br&gt;}&lt;/font&gt;" style="text;html=1;strokeColor=none;fillColor=none;align=left;verticalAlign=top;whiteSpace=wrap;rounded=0;fontSize=14;fontColor=#7B1FA2;fontFamily=Courier New;" parent="1" vertex="1">
          <mxGeometry x="850" y="780" width="620" height="160" as="geometry" />
        </mxCell>
      </root>
    </mxGraphModel>
  </diagram>
</mxfile>
